<svg width="88" height="47" viewBox="0 0 88 47" fill="none" xmlns="http://www.w3.org/2000/svg">
<path d="M0.556084 43.7797C0.296339 44.8533 0.956094 45.9342 2.02969 46.1939C3.10328 46.4537 4.18417 45.7939 4.44392 44.7203L0.556084 43.7797ZM12.8579 27.97L13.3843 29.8995L12.8579 27.97ZM28 39.25L28.0462 41.2495L28 39.25ZM41.5 18.75L40.9915 16.8157L41.5 18.75ZM60.286 33.3967L60.237 35.3961L60.286 33.3967ZM87.8769 3.4409C88.2584 2.40433 87.7275 1.2547 86.6909 0.873126C85.6543 0.491552 84.5047 1.02253 84.1231 2.0591L87.8769 3.4409ZM2.5 44.25C4.44392 44.7203 4.44383 44.7207 4.44376 44.7209C4.44376 44.721 4.4437 44.7212 4.44369 44.7213C4.44366 44.7214 4.44369 44.7212 4.44377 44.7209C4.44393 44.7202 4.44431 44.7187 4.44489 44.7163C4.44605 44.7116 4.44806 44.7035 4.4509 44.6921C4.45658 44.6693 4.46562 44.6333 4.478 44.5851C4.50276 44.4886 4.54089 44.3431 4.59234 44.155C4.69529 43.7785 4.85122 43.2329 5.05974 42.5702C5.47818 41.2402 6.10169 39.46 6.92474 37.6356C7.75298 35.7997 8.75236 33.9888 9.90089 32.5553C11.0653 31.1019 12.2427 30.2109 13.3843 29.8995L12.3316 26.0405C10.0368 26.6665 8.20121 28.2794 6.77922 30.0542C5.34132 31.849 4.18076 33.9909 3.27861 35.9907C2.37127 38.0019 1.69394 39.9401 1.24414 41.3697C1.01855 42.0867 0.848499 42.6812 0.734016 43.0998C0.676741 43.3092 0.633279 43.475 0.603639 43.5904C0.588816 43.6482 0.577442 43.6934 0.569518 43.7252C0.565555 43.7411 0.562455 43.7536 0.560216 43.7628C0.559096 43.7673 0.558192 43.771 0.557504 43.7738C0.55716 43.7753 0.556869 43.7765 0.556633 43.7774C0.556514 43.7779 0.556377 43.7785 0.556318 43.7787C0.556195 43.7792 0.556084 43.7797 2.5 44.25ZM13.3843 29.8995C14.3556 29.6345 15.0568 29.8503 15.8411 30.5021C16.7552 31.2616 17.6045 32.4807 18.6532 34.0698C19.626 35.5437 20.7748 37.3423 22.1773 38.7201C23.6361 40.1533 25.5412 41.3074 28.0462 41.2495L27.9538 37.2505C26.8761 37.2755 25.9573 36.8263 24.9804 35.8667C23.9472 34.8517 23.0486 33.4679 21.9917 31.8665C21.0108 30.3802 19.8481 28.6309 18.3975 27.4256C16.8172 26.1124 14.801 25.3668 12.3316 26.0405L13.3843 29.8995ZM28.0462 41.2495C29.5722 41.2142 30.9072 40.8199 32.0419 40.0809C33.1633 39.3505 33.9777 38.3564 34.5887 37.2852C35.7651 35.2228 36.3408 32.5695 36.8383 30.2443C37.3682 27.7683 37.8267 25.5604 38.6571 23.7961C39.4452 22.1217 40.4538 21.093 42.0085 20.6843L40.9915 16.8157C37.9367 17.6188 36.1496 19.7307 35.0379 22.0927C33.9685 24.3648 33.423 27.0889 32.9269 29.4073C32.3985 31.8765 31.926 33.88 31.1142 35.3034C30.7311 35.9751 30.3164 36.4311 29.8589 36.7291C29.4147 37.0184 28.821 37.2305 27.9538 37.2505L28.0462 41.2495ZM42.0085 20.6843C43.0137 20.42 43.7565 20.4299 44.3247 20.5593C44.8888 20.6876 45.3982 20.9602 45.9014 21.3968C46.9923 22.3434 47.885 23.8851 48.9873 25.9329C50.0126 27.8379 51.2133 30.1653 52.8851 31.9822C54.6413 33.8908 56.9795 35.3163 60.237 35.3961L60.335 31.3973C58.3666 31.349 57.0019 30.5489 55.8287 29.2738C54.571 27.9069 53.6158 26.0926 52.5094 24.0371C51.4799 22.1245 50.2649 19.8872 48.5229 18.3756C47.6095 17.5831 46.5211 16.9568 45.2124 16.659C43.9078 16.3621 42.5028 16.4184 40.9915 16.8157L42.0085 20.6843ZM60.237 35.3961C64.5627 35.5021 68.4438 33.2396 71.6979 30.2226C74.9741 27.1851 77.854 23.1655 80.2201 19.2366C82.5958 15.2918 84.5061 11.3497 85.8203 8.40226C86.4785 6.92597 86.9899 5.6931 87.3378 4.82624C87.5119 4.39268 87.6452 4.0503 87.7357 3.8144C87.7809 3.69643 87.8155 3.60506 87.8391 3.54218C87.8509 3.51074 87.86 3.48642 87.8663 3.46946C87.8694 3.46098 87.8719 3.45434 87.8737 3.44957C87.8746 3.44719 87.8753 3.44527 87.8758 3.44382C87.8761 3.4431 87.8763 3.44237 87.8765 3.44201C87.8767 3.44139 87.8769 3.4409 86 2.75C84.1231 2.0591 84.1232 2.05884 84.1233 2.0587C84.1232 2.05881 84.1232 2.05879 84.1232 2.05901C84.123 2.05944 84.1227 2.06035 84.1222 2.06172C84.1211 2.06446 84.1194 2.06905 84.1171 2.07547C84.1123 2.0883 84.1048 2.10844 84.0946 2.13564C84.0741 2.19004 84.0429 2.27268 84.0011 2.38166C83.9174 2.59964 83.7916 2.92287 83.6257 3.33621C83.2938 4.16313 82.802 5.34917 82.167 6.77339C80.8947 9.62698 79.0584 13.4122 76.7936 17.1729C74.5191 20.9495 71.8645 24.6135 68.9784 27.2893C66.0701 29.9857 63.1611 31.4665 60.335 31.3973L60.237 35.3961Z" fill="#6246D5"/>
</svg>
