<svg width="27" height="43" viewBox="0 0 27 43" fill="none" xmlns="http://www.w3.org/2000/svg">
<path fill-rule="evenodd" clip-rule="evenodd" d="M6.7717 0.172644C6.5187 0.284763 6.3283 0.45735 6.1968 0.693849C5.8618 1.29601 -0.0192002 21.3242 0.0336998 21.6824C0.0929998 22.0832 0.4063 22.4488 0.8381 22.6209C1.1339 22.7387 1.6628 22.7572 4.7401 22.7572C6.6981 22.7572 8.3 22.7741 8.3 22.7949C8.3 22.8157 6.4325 27.0351 4.15 32.1714C1.8675 37.3078 0 41.6196 0 41.7532C0 42.3743 0.7474 42.9973 1.4926 42.9973C2.2965 42.9973 1.7549 43.5877 14.5987 28.7108C21.2455 21.0119 26.7549 14.5972 26.8419 14.456C27.1864 13.8964 26.9212 13.1976 26.2396 12.8694C25.858 12.6857 25.7814 12.6819 22.525 12.6805C20.6962 12.6797 19.2 12.6635 19.2 12.6444C19.2 12.6254 20.8696 10.2539 22.9102 7.37443C24.9508 4.49504 26.7058 1.99887 26.8102 1.82755C26.9146 1.65614 27 1.39957 27 1.2573C27 0.840568 26.6463 0.356737 26.2026 0.166598C25.8152 0.000645374 25.6359 -0.00237805 16.479 0.00123326C7.3529 0.00484456 7.1418 0.00862385 6.7717 0.172644Z" fill="#F1AA0B"/>
</svg>
