<svg width="136" height="55" viewBox="0 0 136 55" fill="none" xmlns="http://www.w3.org/2000/svg">
<path d="M35.942 5.25665C36.6688 3.34177 35.7077 1.17358 33.7125 0.710871C28.7121 -0.448765 23.4603 -0.190924 18.5594 1.49392C12.4834 3.58277 7.33065 7.73315 3.99541 13.2247C0.660172 18.7162 -0.646957 25.2023 0.300901 31.557C1.24876 37.9117 4.39177 43.7339 9.18439 48.0131C13.977 52.2923 20.1167 54.7584 26.5378 54.9832C32.9589 55.208 39.256 53.1774 44.3362 49.2438C49.4163 45.3103 52.9588 39.7221 54.3488 33.4492C55.4699 28.3896 55.1335 23.1422 53.4171 18.3045C52.7322 16.3743 50.4695 15.664 48.6488 16.6022C46.8281 17.5403 46.1499 19.7733 46.7378 21.7353C47.7158 24.9989 47.8532 28.4787 47.1074 31.8447C46.0923 36.4257 43.5053 40.5067 39.7953 43.3793C36.0853 46.2519 31.4866 47.7348 26.7973 47.5707C22.1081 47.4065 17.6243 45.6056 14.1243 42.4805C10.6243 39.3555 8.329 35.1035 7.63679 30.4628C6.94458 25.822 7.89916 21.0853 10.3348 17.0749C12.7705 13.0645 16.5336 10.0335 20.9708 8.50804C24.2311 7.38718 27.7042 7.13111 31.0573 7.73457C33.0731 8.09735 35.2153 7.17153 35.942 5.25665Z" fill="#6246D5"/>
<path d="M36.0951 27.6856C36.0951 32.3299 32.3302 36.0949 27.6859 36.0949C23.0416 36.0949 19.2766 32.3299 19.2766 27.6856C19.2766 23.0413 23.0416 19.2764 27.6859 19.2764C32.3302 19.2764 36.0951 23.0413 36.0951 27.6856Z" fill="#FD8D62"/>
<path fill-rule="evenodd" clip-rule="evenodd" d="M37.5937 27.6858C37.5937 33.1578 33.1578 37.5937 27.6858 37.5937C22.2138 37.5937 17.7778 33.1578 17.7778 27.6858C17.7778 22.2138 22.2138 17.7778 27.6858 17.7778C33.1578 17.7778 37.5937 22.2138 37.5937 27.6858ZM27.6858 36.095C32.3301 36.095 36.095 32.3301 36.095 27.6858C36.095 23.0415 32.3301 19.2765 27.6858 19.2765C23.0415 19.2765 19.2765 23.0415 19.2765 27.6858C19.2765 32.3301 23.0415 36.095 27.6858 36.095Z" fill="white"/>
<path d="M49.4444 8.05572C49.4444 10.6637 47.3302 12.7779 44.7222 12.7779C42.1142 12.7779 40 10.6637 40 8.05572C40 5.44771 42.1142 3.3335 44.7222 3.3335C47.3302 3.3335 49.4444 5.44771 49.4444 8.05572Z" fill="#FD8D62"/>
<path d="M73.3291 28.1925C73.3291 29.4855 73.4879 30.6652 73.8055 31.7313C74.1231 32.7748 74.5768 33.6709 75.1666 34.4195C75.7791 35.1454 76.5163 35.7125 77.3784 36.1209C78.2404 36.5292 79.2158 36.7334 80.3047 36.7334C81.3709 36.7334 82.335 36.5292 83.197 36.1209C84.0591 35.7125 84.785 35.1454 85.3748 34.4195C85.9873 33.6709 86.4523 32.7748 86.7699 31.7313C87.0875 30.6652 87.2463 29.4855 87.2463 28.1925C87.2463 26.8995 87.0875 25.7312 86.7699 24.6877C86.4523 23.6215 85.9873 22.7254 85.3748 21.9995C84.785 21.2509 84.0591 20.6724 83.197 20.2641C82.335 19.8558 81.3709 19.6516 80.3047 19.6516C79.2158 19.6516 78.2404 19.8558 77.3784 20.2641C76.5163 20.6724 75.7791 21.2509 75.1666 21.9995C74.5768 22.7481 74.1231 23.6442 73.8055 24.6877C73.4879 25.7312 73.3291 26.8995 73.3291 28.1925ZM91.7379 28.1925C91.7379 30.2115 91.4317 31.9922 90.8192 33.5348C90.2294 35.0774 89.4127 36.3704 88.3692 37.4139C87.3484 38.4347 86.1461 39.206 84.7623 39.7278C83.3785 40.2495 81.904 40.5104 80.3387 40.5104C78.7735 40.5104 77.2876 40.2495 75.8812 39.7278C74.4974 39.206 73.2837 38.4347 72.2402 37.4139C71.2194 36.3704 70.4027 35.0774 69.7902 33.5348C69.1778 31.9922 68.8715 30.2115 68.8715 28.1925C68.8715 26.1735 69.1778 24.4041 69.7902 22.8842C70.4027 21.3416 71.2307 20.0486 72.2742 19.0051C73.3404 17.9616 74.5654 17.179 75.9492 16.6572C77.333 16.1355 78.7962 15.8746 80.3387 15.8746C81.8813 15.8746 83.3445 16.1355 84.7283 16.6572C86.1121 17.179 87.3144 17.9616 88.3352 19.0051C89.3787 20.0486 90.2067 21.3416 90.8192 22.8842C91.4317 24.4041 91.7379 26.1735 91.7379 28.1925ZM105.867 25.9127C105.527 25.7992 105.05 25.6858 104.438 25.5724C103.848 25.4363 103.156 25.3682 102.362 25.3682C101.908 25.3682 101.421 25.4136 100.899 25.5043C100.4 25.5951 100.048 25.6745 99.8441 25.7425V40H95.7268V23.0544C96.5208 22.7595 97.5076 22.4872 98.6872 22.2377C99.8895 21.9655 101.217 21.8294 102.668 21.8294C102.941 21.8294 103.258 21.8521 103.621 21.8974C103.984 21.9201 104.347 21.9655 104.71 22.0335C105.073 22.0789 105.425 22.147 105.765 22.2377C106.105 22.3058 106.377 22.3738 106.582 22.4419L105.867 25.9127ZM113.092 40H108.974V22.2037H113.092V40ZM113.534 16.9975C113.534 17.7688 113.285 18.3813 112.785 18.835C112.286 19.2887 111.697 19.5155 111.016 19.5155C110.313 19.5155 109.712 19.2887 109.213 18.835C108.714 18.3813 108.464 17.7688 108.464 16.9975C108.464 16.2035 108.714 15.5797 109.213 15.126C109.712 14.6723 110.313 14.4454 111.016 14.4454C111.697 14.4454 112.286 14.6723 112.785 15.126C113.285 15.5797 113.534 16.2035 113.534 16.9975ZM133.929 31.0848C133.929 32.4913 133.725 33.773 133.316 34.9299C132.908 36.0868 132.33 37.0736 131.581 37.8903C130.832 38.707 129.925 39.3421 128.859 39.7958C127.815 40.2495 126.658 40.4764 125.388 40.4764C124.118 40.4764 122.961 40.2495 121.917 39.7958C120.874 39.3421 119.978 38.707 119.229 37.8903C118.481 37.0736 117.891 36.0868 117.46 34.9299C117.051 33.773 116.847 32.4913 116.847 31.0848C116.847 29.6784 117.051 28.408 117.46 27.2738C117.891 26.1168 118.481 25.13 119.229 24.3134C120 23.4967 120.908 22.8729 121.951 22.4419C122.995 21.9882 124.14 21.7613 125.388 21.7613C126.636 21.7613 127.781 21.9882 128.825 22.4419C129.891 22.8729 130.798 23.4967 131.547 24.3134C132.296 25.13 132.874 26.1168 133.282 27.2738C133.713 28.408 133.929 29.6784 133.929 31.0848ZM129.71 31.0848C129.71 29.3154 129.324 27.9203 128.553 26.8995C127.804 25.8559 126.749 25.3342 125.388 25.3342C124.027 25.3342 122.961 25.8559 122.19 26.8995C121.441 27.9203 121.067 29.3154 121.067 31.0848C121.067 32.8769 121.441 34.2947 122.19 35.3382C122.961 36.3818 124.027 36.9035 125.388 36.9035C126.749 36.9035 127.804 36.3818 128.553 35.3382C129.324 34.2947 129.71 32.8769 129.71 31.0848Z" fill="#151515"/>
</svg>
