<svg width="30" height="30" viewBox="0 0 30 30" fill="none" xmlns="http://www.w3.org/2000/svg">
<path fill-rule="evenodd" clip-rule="evenodd" d="M8.75001 30H11.25V27.5H8.75001V30ZM13.75 30H16.25V27.5H13.75V30ZM15 2.5C14.3125 2.5 13.75 3.0625 13.75 3.75V13.75C13.75 14.4375 14.3125 15 15 15C15.6875 15 16.25 14.4375 16.25 13.75V3.75C16.25 3.0625 15.6875 2.5 15 2.5ZM19.925 6.325L19.9 6.35C19.3875 6.8625 19.45 7.7 20 8.175C21.8875 9.85 22.9125 12.4625 22.35 15.3C21.775 18.15 19.4875 20.475 16.65 21.075C11.7875 22.1125 7.50001 18.425 7.50001 13.75C7.50001 11.525 8.47501 9.5375 10.0125 8.1625C10.55 7.675 10.6 6.8625 10.1 6.35L10.075 6.325C9.61251 5.8625 8.87501 5.8375 8.37501 6.275C5.86251 8.4875 4.47501 11.9375 5.17501 15.675C5.91251 19.6125 9.06251 22.8 13 23.5625C19.4 24.8 25 19.9375 25 13.75C25 10.775 23.6875 8.1 21.6125 6.2625C21.125 5.8375 20.3875 5.8625 19.925 6.325ZM18.75 30H21.25V27.5H18.75V30Z" fill="#151515"/>
</svg>
