<svg width="168" height="168" viewBox="0 0 168 168" fill="none" xmlns="http://www.w3.org/2000/svg">
<path d="M33.9282 142.354C44.2502 151.211 56.7366 157.172 70.1139 159.628C83.4912 162.084 97.2807 160.948 110.076 156.336L105.26 142.975C94.8278 146.736 83.5852 147.662 72.6786 145.659C61.7721 143.657 51.5918 138.797 43.1764 131.576L33.9282 142.354Z" fill="#BB6BD9"/>
<path d="M13.2365 53.9173C6.24642 70.3602 5.20064 88.724 10.2788 105.854C15.3569 122.984 26.2419 137.811 41.0639 147.788L48.9941 136.006C36.9097 127.872 28.0351 115.784 23.8949 101.818C19.7547 87.8514 20.6073 72.8793 26.3063 59.4735L13.2365 53.9173Z" fill="#47AD71"/>
<path d="M94.742 3.94896C76.2983 1.47402 57.5657 5.44372 41.7112 15.187C25.8566 24.9302 13.8529 39.8492 7.72915 57.4218L28.8043 64.7661C33.2359 52.0491 41.9228 41.2525 53.3964 34.2016C64.87 27.1506 78.4264 24.2778 91.7738 26.0688L94.742 3.94896Z" fill="#EE174B"/>
<path d="M102.517 162.619C114.266 159.851 125.245 154.486 134.647 146.918C144.049 139.349 151.635 129.77 156.848 118.883C162.061 107.997 164.768 96.0809 164.769 84.0109C164.771 71.9409 162.067 60.0241 156.857 49.1365L136.68 58.792C140.447 66.6643 142.402 75.2808 142.4 84.0081C142.399 92.7353 140.442 101.351 136.673 109.223C132.904 117.094 127.419 124.021 120.62 129.493C113.822 134.966 105.884 138.845 97.389 140.846L102.517 162.619Z" fill="#6246D5"/>
<path d="M168 84C168 71.8984 165.385 59.9397 160.335 48.9425C155.284 37.9452 147.917 28.1691 138.737 20.2833C129.558 12.3975 118.783 6.58817 107.15 3.25302C95.5171 -0.0821253 83.3009 -0.864359 71.3376 0.959863L75.7182 29.6877C83.5428 28.4946 91.5328 29.0062 99.1413 31.1876C106.75 33.3689 113.797 37.1685 119.801 42.3262C125.805 47.4839 130.623 53.878 133.926 61.0707C137.23 68.2634 138.94 76.085 138.94 84H168Z" fill="#F1AA0B"/>
</svg>
