<svg width="32" height="39" viewBox="0 0 32 39" fill="none" xmlns="http://www.w3.org/2000/svg">
<path fill-rule="evenodd" clip-rule="evenodd" d="M11.4016 0.311719C10.8264 0.543171 10.5046 0.974953 10.497 1.52513C10.4932 1.80048 10.7296 2.3939 11.7471 4.66385C12.5271 6.40375 13.0019 7.55834 13.0019 7.71484C13.0019 8.17663 12.434 8.47947 11.9783 8.26072C11.7242 8.13882 11.6869 8.06507 10.2358 4.81723L9.69649 3.61021H8.78465C8.03426 3.61021 7.8179 3.63621 7.56257 3.75706C6.97602 4.03478 6.66306 4.71428 6.85604 5.29128C6.91255 5.46004 7.58906 6.52044 8.35947 7.64777L9.7602 9.69741L15.9635 9.6957L22.1667 9.694L23.4874 7.75978C24.2138 6.69596 24.8774 5.70316 24.9622 5.55348C25.3021 4.95316 25.0794 4.18869 24.458 3.82302C24.1133 3.62016 24.0528 3.61021 23.1634 3.61021H22.2304L21.6911 4.81723C20.24 8.06507 20.2027 8.13882 19.9486 8.26072C19.4929 8.47947 18.925 8.17663 18.925 7.71484C18.925 7.55849 19.3987 6.40553 20.1749 4.67254C21.1834 2.42093 21.4248 1.81475 21.4248 1.53345C21.4248 0.970124 21.1018 0.538863 20.5073 0.308377C20.068 0.137982 11.8258 0.141027 11.4016 0.311719ZM26.9591 7.01098C26.6416 7.05569 26.4448 7.3459 26.3629 7.89059C26.2615 8.56451 26.1031 8.99422 25.7607 9.52434C25.4224 10.0481 24.9403 10.521 24.4409 10.819L24.0737 11.0381L15.7163 11.0382C7.91788 11.0383 7.34061 11.047 7.08448 11.1682C6.249 11.5635 6.24748 12.5538 7.08168 12.9507C7.41537 13.1095 7.52463 13.118 9.27691 13.1202C11.2094 13.1227 11.2772 13.1334 11.4681 13.4658C11.6137 13.7195 11.5784 13.9823 11.3682 14.2093L11.1753 14.4177L9.7887 14.4549L8.40213 14.492L7.777 15.2348C6.10525 17.2212 4.6091 19.435 3.35916 21.7713C1.12999 25.9381 0.275545 29.4155 0.715536 32.5303C0.860652 33.5575 1.06836 34.2135 1.48546 34.9613C2.12123 36.1013 3.13353 37.0166 4.38538 37.5834C5.81565 38.2309 4.97097 38.1869 15.9635 38.1869C25.2056 38.1869 25.7164 38.18 26.2489 38.0481C28.518 37.4863 30.2341 35.9593 30.922 33.8896C31.1384 33.2388 31.3315 31.8742 31.3315 30.9962C31.3315 26.919 29.0727 21.5914 25.2229 16.5888C24.7441 15.9667 24.1563 15.2321 23.9165 14.9563L23.4805 14.4549H19.2479H15.0152L14.769 14.2626C14.4449 14.0095 14.4225 13.5755 14.7192 13.3002L14.9156 13.1179H19.9474C25.4688 13.1179 25.3882 13.1121 26.2621 13.5723C26.8202 13.8663 27.5014 14.5665 27.8003 15.1538C28.0642 15.6719 28.2165 15.7919 28.611 15.7919C28.9159 15.7919 29.3305 15.442 29.3304 15.1848C29.3303 14.9279 28.9233 14.1828 28.4974 13.66C27.9124 12.9418 26.8946 12.292 25.9044 12.0042C25.6709 11.9364 25.4728 11.8616 25.4641 11.8379C25.4555 11.8143 25.6357 11.6567 25.8645 11.4875C26.9419 10.6916 27.787 9.1268 27.8246 7.85857C27.8361 7.47344 27.809 7.37026 27.6576 7.22059C27.4702 7.03549 27.2515 6.9699 26.9591 7.01098ZM11.1625 25.4117C11.4346 25.5423 11.5611 25.7307 11.5611 26.0052C11.5611 26.5689 11.2002 26.7108 9.76637 26.7108H8.68684L8.66323 29.5396L8.63961 32.3683L8.3782 32.585C8.08708 32.8263 7.89699 32.8524 7.57065 32.6958C7.17116 32.5041 7.15884 32.4074 7.15884 29.4557V26.7108H6.07571C4.91734 26.7108 4.52377 26.628 4.36377 26.3506C4.16375 26.0037 4.336 25.5118 4.70611 25.3732C4.80048 25.3379 6.23915 25.3068 7.90323 25.3042C10.4523 25.3003 10.9656 25.3172 11.1625 25.4117ZM16.4037 25.4831C16.6511 25.628 19.6764 32.0085 19.6115 32.2485C19.5 32.6607 19.0214 32.8875 18.6026 32.7265C18.3592 32.633 18.2744 32.498 17.6562 31.2216L17.4126 30.7185L15.9515 30.7387L14.4904 30.759L14.0839 31.6031C13.6731 32.4557 13.3815 32.8017 13.0735 32.8017C12.7975 32.8017 12.4682 32.5948 12.3606 32.3539C12.2362 32.0751 12.1106 32.3762 13.9887 28.4519C15.2862 25.7407 15.3901 25.5514 15.6474 25.4302C15.9249 25.2993 16.1124 25.3125 16.4037 25.4831ZM22.3036 25.4994C22.3847 25.5675 22.7985 26.1195 23.2232 26.7261C23.6479 27.3327 24.0206 27.803 24.0514 27.7713C24.0822 27.7396 24.4689 27.2092 24.9108 26.5927C25.7997 25.3524 25.9939 25.1989 26.4522 25.375C26.586 25.4265 26.7481 25.5383 26.8124 25.6234C27.0651 25.9583 26.9709 26.1707 25.923 27.628C25.3696 28.3977 24.9354 29.0724 24.9581 29.1272C24.9807 29.1821 25.4335 29.83 25.9642 30.5672C26.6408 31.5069 26.9292 31.9714 26.9292 32.1217C26.9292 32.3984 26.6684 32.7035 26.3819 32.7619C25.9349 32.853 25.772 32.7129 24.8774 31.4669L24.022 30.2755L23.2069 31.4087C22.7586 32.0319 22.3276 32.5911 22.2492 32.6514C22.1706 32.7118 21.9631 32.7612 21.788 32.7612C21.5388 32.7612 21.4276 32.7161 21.2778 32.5545C20.9428 32.193 21.0061 32.0309 22.0539 30.5663C22.5861 29.8224 23.0405 29.1678 23.0637 29.1116C23.087 29.0554 22.6515 28.373 22.096 27.595C21.5406 26.8169 21.0861 26.1181 21.0861 26.0419C21.0861 25.4385 21.8342 25.1052 22.3036 25.4994ZM15.5612 28.5065C15.3643 28.9223 15.1911 29.2899 15.1764 29.3236C15.1617 29.3573 15.5159 29.3849 15.9635 29.3849C16.4111 29.3849 16.7652 29.3573 16.7505 29.3236C16.5266 28.8094 15.9968 27.7507 15.9635 27.7507C15.9392 27.7507 15.7582 28.0909 15.5612 28.5065Z" fill="#EE174B"/>
</svg>
