<svg width="36" height="36" viewBox="0 0 36 36" fill="none" xmlns="http://www.w3.org/2000/svg">
<path fill-rule="evenodd" clip-rule="evenodd" d="M31.6796 0.10773C30.7776 0.321639 30.6487 0.437032 26.5392 4.71007C24.4415 6.89135 22.6944 8.68622 22.6568 8.69874C22.6192 8.71126 18.8597 7.4868 14.3023 5.97777C9.74494 4.46874 5.70574 3.13156 5.32633 3.0064L4.63645 2.77877L2.7608 4.65396C1.56419 5.85021 0.909902 6.55311 0.953582 6.59538C0.991284 6.6318 4.3456 8.70655 8.40766 11.2059C12.4697 13.7052 15.8017 15.7742 15.812 15.8036C15.8351 15.869 8.38205 23.6469 8.2693 23.6751C8.22499 23.6861 7.11504 23.5194 5.80273 23.3046L3.4167 22.9139L1.70832 24.6218L0 26.3296L3.58059 27.5842L7.16112 28.8388L8.41518 32.4194L9.66925 36L11.3802 34.2895L13.0913 32.5789L12.6983 30.2299C12.4822 28.9379 12.3147 27.8298 12.326 27.7675C12.3497 27.6376 20.1195 20.1622 20.2013 20.1907C20.2308 20.2009 22.2998 23.5319 24.799 27.5928C27.298 31.6537 29.3731 35.007 29.4102 35.0447C29.4534 35.0887 30.1461 34.4447 31.3508 33.2404L33.2241 31.3676L30.2589 22.406C28.628 17.4771 27.2936 13.4156 27.2936 13.3802C27.2936 13.3448 29.07 11.6107 31.2412 9.52653C34.0427 6.8372 35.2681 5.61422 35.4624 5.31375C36.5624 3.61247 35.9107 1.2715 34.0885 0.378175C33.2919 -0.0123031 32.5413 -0.0966149 31.6796 0.10773Z" fill="#BB6BD9"/>
</svg>
