<svg width="30" height="43" viewBox="0 0 30 43" fill="none" xmlns="http://www.w3.org/2000/svg">
<path fill-rule="evenodd" clip-rule="evenodd" d="M10.333 0.422466C9.79786 0.688325 9.29511 1.10879 8.99376 1.5422C8.57545 2.14383 8.50331 2.42279 8.45174 3.63731L8.39242 5.03836L6.00792 5.04004C3.86393 5.04155 3.53865 5.08121 2.7809 5.43429C1.66736 5.95324 0.745449 6.92946 0.334045 8.02566C0.0578087 8.76223 0 9.33479 0 11.3386C0 12.7562 0.0776967 13.9312 0.187079 14.1708C0.405674 14.6493 0.99118 14.9535 1.69331 14.9535C2.05551 14.9535 2.19051 15.0334 2.18949 15.2475C2.18865 15.4094 2.38247 20.8353 2.62045 27.3053C2.94354 36.0926 3.11629 39.294 3.30287 39.9581C3.59309 40.9908 4.4518 42.0269 5.46607 42.5682C6.1409 42.9285 6.28668 42.9349 14.7342 42.9821C24.1761 43.0348 24.1485 43.0374 25.4493 42.0101C25.8137 41.7222 26.3034 41.0888 26.5498 40.5863L26.9941 39.6812L27.4669 27.3594C27.7269 20.5824 27.9482 15.0286 27.9587 15.0177C27.9689 15.0067 28.2868 14.9563 28.6648 14.9057C29.9565 14.733 30 14.617 30 11.3472C30 8.58393 29.9821 8.42949 29.5638 7.59259C29.3238 7.11246 28.8221 6.45891 28.4486 6.14028C27.3978 5.24339 26.5677 5.03836 23.9869 5.03836H21.7416V4.29036C21.7416 2.34448 20.9934 0.924775 19.6468 0.314913C19.0438 0.0418277 18.4901 0.00367981 15.0752 0.000486815C11.2515 -0.00321034 11.1762 0.00351174 10.333 0.422466ZM18.8427 2.88729C18.9539 2.99821 19.0449 3.52891 19.0449 4.06668V5.04441L15.0421 4.99937L11.0393 4.95434L11.044 3.97896C11.0472 3.30709 11.1258 2.95502 11.2969 2.84729C11.6821 2.60429 18.5956 2.64093 18.8427 2.88729ZM26.434 7.9218C27.2164 8.47436 27.3755 8.8997 27.4451 10.6243L27.5112 12.2646H15.1038H2.69663V10.597C2.69663 9.0491 2.72781 8.89231 3.13197 8.41353C3.37146 8.12985 3.80747 7.82719 4.10107 7.74115C4.41084 7.65023 9.12573 7.59696 15.3371 7.61393C25.0037 7.64032 26.0776 7.67006 26.434 7.9218ZM25.2185 16.9281C25.1604 18.0142 24.9592 23.2889 24.7714 28.6497C24.5837 34.0106 24.392 38.6341 24.3457 38.9241C24.2993 39.2142 24.0634 39.6489 23.8212 39.8904L23.381 40.3294H15.0988C6.18421 40.3294 6.35865 40.3458 5.88522 39.4636C5.7182 39.1525 4.90045 20.1318 4.89101 16.3399L4.88764 14.9535H15.1058H25.3242L25.2185 16.9281ZM10.5278 18.6425C9.7468 18.9581 9.72253 19.1032 9.74899 23.3201C9.76264 25.512 9.82348 29.4128 9.88416 31.9886C9.98966 36.4796 10.0094 36.6894 10.3623 37.0986C10.62 37.3974 10.8895 37.5207 11.2618 37.5101C12.616 37.4718 12.6071 37.5439 12.4454 27.8935C12.3526 22.3506 12.2432 19.4549 12.1176 19.2153C12.014 19.0176 11.7445 18.7718 11.5185 18.6691C11.0479 18.4553 10.9943 18.454 10.5278 18.6425ZM18.5393 18.7C18.3076 18.8168 18.0319 19.0993 17.9265 19.3277C17.7964 19.6098 17.7012 22.4619 17.6296 28.2296C17.5158 37.3792 17.4932 37.1078 18.3919 37.4484C18.9012 37.6415 19.7739 37.3177 19.9746 36.8609C20.0503 36.689 20.1782 32.7294 20.2588 28.0619C20.415 19.0227 20.416 19.0361 19.6084 18.6691C19.0985 18.4375 19.0574 18.4387 18.5393 18.7Z" fill="#47AD71"/>
</svg>
