<svg width="33" height="42" viewBox="0 0 33 42" fill="none" xmlns="http://www.w3.org/2000/svg">
<path fill-rule="evenodd" clip-rule="evenodd" d="M15.7928 0.165465C15.4368 0.337491 15.2273 0.581037 14.0392 2.20424C13.2971 3.21816 11.7388 5.34094 10.5761 6.9216C3.95545 15.923 0.826437 21.4696 0.10742 25.479C-0.06582 26.4447 -0.0243969 28.3311 0.194759 29.4615C1.14255 34.3493 4.54552 38.4243 9.45806 40.5542C12.4481 41.8506 15.8129 42.2894 19.1174 41.8141C24.901 40.9821 29.9651 37.1858 32.006 32.1522C32.7316 30.3628 33 28.982 33 27.0392C33 25.877 32.965 25.5003 32.7908 24.7894C31.9901 21.5211 29.6239 17.0938 25.5012 11.1504C24.8903 10.2697 22.8804 7.49212 21.0347 4.97784C18.4354 1.43706 17.6056 0.365081 17.3536 0.222862C16.8672 -0.0518865 16.2868 -0.0732358 15.7928 0.165465ZM19.5414 8.25593C22.741 12.6656 23.3297 13.5067 24.8426 15.8308C27.4875 19.8938 28.9164 22.7159 29.603 25.2327C29.8407 26.1039 29.8145 28.1588 29.5513 29.288C28.5239 33.6957 25.1833 37.1307 20.645 38.4461C17.2844 39.4202 13.7425 39.1847 10.6262 37.78C6.50499 35.9224 3.86532 32.5006 3.29699 28.2793C2.98241 25.9418 3.63071 23.6864 5.70708 19.8954C6.65217 18.1699 8.21115 15.6754 9.70984 13.4906C10.676 12.0822 16.45 4.17083 16.5118 4.17083C16.5478 4.17083 17.9111 6.00917 19.5414 8.25593ZM25.6 25.9364C24.8878 26.1971 24.5694 26.6674 24.4639 27.614C24.2193 29.8101 22.8511 31.8227 20.7704 33.0469C19.9754 33.5147 19.6566 33.9278 19.6566 34.4901C19.6566 35.6975 20.9508 36.3905 22.1367 35.818C24.1599 34.8413 26.1773 32.6641 27.0244 30.543C27.5759 29.162 27.8296 27.2169 27.5274 26.6861C27.1674 26.0537 26.2521 25.6977 25.6 25.9364Z" fill="#2F80ED"/>
</svg>
